# xmcd
# 
# Track frame offsets:
#     150
#     21173
#     42563
#     57731
# 
# Disc length: 1047
# 
# Revision: 3
# Processed by: cddbd v1.5.2PL0 Copyright (c) Steve Scherf et al.
# Submitted via: BonkEnc v1.0
# 
DISCID=36041504
DTITLE=FLOW - Answer
DYEAR=2007
DGENRE=JPop
TTITLE0=Answer
TTITLE1=Electric circus
TTITLE2=Steppers high
TTITLE3=Answer -Instrumental-
EXTD=YEAR: 2007
EXTT0=
EXTT1=
EXTT2=
EXTT3=
PLAYORDER=
